<svg width="94" height="93" viewBox="0 0 94 93" fill="none" xmlns="http://www.w3.org/2000/svg">
<g clip-path="url(#clip0)">
<path d="M92.5701 72.6053C92.5701 71.4511 92.0452 73.5403 91.95 73.7701C91.2688 75.4095 90.1635 76.964 88.485 77.6953C86.8022 78.4287 84.9987 79.0242 83.2854 79.6883C74.6279 83.0413 65.8084 86.0422 56.8405 88.4659C47.4287 91.0091 36.4818 94.0524 26.7218 91.9016C19.4239 90.292 10.5427 87.5302 4.28184 83.2188C-0.723142 79.7718 0.735164 71.8995 0.735164 66.6397V44.6601C0.735164 42.6523 0.385682 40.2646 2.43711 39.0779C5.40487 37.3607 9.67039 37.0424 12.9415 36.2185C17.1395 35.1597 18.4685 35.2581 18.2931 30.5691C18.1752 27.4353 22.5735 27.424 24.9027 26.9126C28.5026 26.1233 32.1097 25.344 35.6855 24.4528C38.3194 23.7951 36.0705 20.2978 37.1474 18.6223C38.0054 17.2821 41.7354 17.2354 43.0949 17.0197C46.2957 16.5134 49.4971 16.0098 52.705 15.5522C64.5575 13.8584 77.7512 18.203 89.2173 20.9414C93.1433 21.8792 93.4182 23.7944 93.3585 27.2295C93.2619 32.816 93.1653 38.4024 93.068 43.9889C92.9046 53.524 92.7413 63.0618 92.5708 72.6032" fill="url(#paint0_radial)"/>
<path d="M3.17088 81.6155C-0.00215706 78.2894 1.24305 70.8153 1.24305 66.6362V45.815C1.24305 44.431 1.11235 42.9627 1.28567 41.5808C1.64225 38.7087 6.31764 38.3869 8.51185 37.843C10.4418 37.3656 17.278 36.8331 18.4145 35.0296C20.2912 32.0535 16.8454 29.1758 21.2466 28.226C24.804 27.4579 28.357 26.6771 31.9037 25.8624C35.7132 24.9861 37.7192 25.2789 37.5039 20.737C37.3114 16.6866 45.8539 17.089 49.0099 16.6074C52.2532 16.1131 55.4234 15.4744 58.7073 15.7304C66.8867 16.3648 75.0278 18.244 83.0162 20.0283C85.0917 20.4923 92.9075 21.0326 92.9075 24.2647C92.7519 33.0755 92.5971 41.8856 92.4429 50.6964C92.3456 56.2016 92.249 61.7053 92.1524 67.2112C92.0927 70.5861 92.428 73.8826 89.5625 76.4039C87.791 77.9612 84.7174 78.597 82.5061 79.4662C77.6922 81.3609 72.8208 83.1411 67.8876 84.7083C57.3072 88.0684 46.2239 91.2786 35.0888 91.9688C27.3938 92.4455 20.0696 89.6866 13.0643 86.7911C11.9946 86.3526 3.1652 83.262 3.1652 81.6141L3.17088 81.6155ZM56.2573 14.601C52.7575 14.601 49.0624 15.5607 45.6187 16.0989C42.396 16.6032 37.4421 16.2651 36.4051 19.7341C36.7027 23.0016 36.616 23.7173 33.6326 24.4189C31.4036 24.943 29.1704 25.4423 26.9342 25.9373C24.9062 26.3857 18.2078 26.786 17.8122 29.4891C17.3931 32.3555 18.8784 34.1661 15.6357 35.0042C11.7964 35.9964 7.9443 36.9377 4.09431 37.8855C-1.42779 39.2462 0.226569 46.8971 0.226569 51.2056V73.5304C0.226569 75.6563 0.0475656 77.9124 0.867286 79.9231C2.30854 83.4537 6.12443 84.8858 9.3749 86.33C17.9798 90.1534 26.9612 93.6931 36.5279 92.8805C47.2369 91.971 57.7902 88.9433 67.9728 85.6482C73.7457 83.779 79.4638 81.7322 85.1088 79.5122C88.61 78.1366 92.173 76.5687 93.0723 72.6103C93.6327 70.1441 93.1724 67.004 93.215 64.4918C93.3237 58.3155 93.4324 52.1385 93.5411 45.9636C93.6377 40.4945 93.7336 35.0261 93.8288 29.5584C93.8813 26.6333 94.8545 22.3339 91.4051 21.0135C86.9173 19.2963 81.7205 18.6634 77.0409 17.6909C70.2778 16.292 63.198 14.6073 56.2545 14.6073" fill="url(#paint1_linear)"/>
<path d="M91.8314 22.3488C91.6332 33.1052 91.4506 43.8638 91.2617 54.6202C91.1771 59.3707 91.0933 64.1213 91.0095 68.8704C90.9356 73.0247 87.6269 74.8572 84.2124 76.2101C70.4455 81.6714 56.0819 86.586 41.4228 88.9645C33.318 90.2785 26.4349 89.8768 18.6554 87.1907C13.7932 85.5132 4.89203 83.262 1.57764 78.8439C3.14889 84.2288 12.7881 86.7812 17.3917 88.4928C25.5179 91.5134 32.6759 92.5764 41.2715 91.2977C56.6488 89.0105 71.7546 83.7847 86.1409 78.02C95.1316 74.4159 92.2519 61.6063 92.3918 53.6859C92.509 46.9622 92.6269 40.2392 92.7463 33.5154C92.7889 31.3018 94.2237 23.8828 91.837 22.346" fill="#FFB600"/>
<path d="M2.6829 77.2165V46.7104C2.6829 45.6205 2.52166 44.3921 2.6829 43.3107C2.6829 39.8891 6.33825 39.6274 8.94374 38.9831C12.1821 38.1839 15.4276 37.4003 18.6476 36.5318C22.1424 35.5883 18.5154 30.7452 21.0747 29.5273C23.2796 28.4756 26.3468 28.32 28.6973 27.7995C30.9398 27.303 36.2779 27.1198 38.0367 25.6269C41.2104 22.9323 36.4086 19.7235 41.9378 18.8345C46.7034 18.0693 51.4747 17.2744 56.2637 16.6583C62.8918 15.8054 70.3915 17.9851 76.8406 19.2956C81.9272 20.3289 87.4984 21.0397 92.3939 22.8269C91.3142 21.597 88.7315 21.341 87.2078 20.9852C83.6718 20.1613 80.1251 19.3763 76.5692 18.6422C69.7749 17.2369 61.8171 14.8669 54.8275 15.7665C50.0384 16.3825 45.2678 17.1768 40.5023 17.9427C34.983 18.8296 39.7678 22.1373 36.5365 24.7499C33.9821 25.4239 18.7818 27.0576 18.8045 30.1334C17.3682 33.1321 19.9304 34.9448 15.7643 36.0191C12.2049 36.9378 8.63404 37.8169 5.06463 38.6938C0.0511308 39.9251 1.24733 44.5349 1.24733 48.6808V69.2509C1.24733 74.5092 0.19959 80.4769 5.68972 83.46C3.63829 81.9395 2.67864 79.7329 2.67864 77.2151" fill="#FFE600"/>
<path d="M68.2392 29.8795C68.2392 32.038 51.04 26.8737 49.5547 26.5258C48.9942 26.3949 34.9759 24.3772 38.8734 21.1974C43.568 17.3663 55.9959 20.563 60.9398 22.3078C64.4013 23.5292 68.2392 25.7775 68.2392 29.8795Z" fill="#FFE62E"/>
<path d="M49.4091 41.1289C49.4091 43.2859 32.2092 38.1217 30.7246 37.7744C30.1641 37.6429 16.1465 35.6258 20.0434 32.4475C24.7379 28.6164 37.1666 31.8131 42.1097 33.5579C45.5712 34.7785 49.4091 37.0269 49.4091 41.1289Z" fill="#FFE62E"/>
<path d="M31.3866 56.3055C31.3866 62.1537 33.5211 70.5748 31.0641 76.0489C30.6663 76.9343 30.0732 76.1988 29.7713 75.6585C27.9557 72.4228 26.7602 68.8775 24.8501 65.663C21.6728 60.3135 17.6033 55.442 12.528 51.7799C9.87211 49.8633 6.99101 48.4502 4.04315 47.0513C1.48525 45.8377 2.48966 44.3716 5.22655 44.5795C12.0933 45.0986 19.8302 47.5457 26.0172 50.4899C28.4465 51.6462 31.3866 53.2778 31.3866 56.3034" fill="#FFE62E"/>
<path d="M52.9074 38.2702C53.0808 35.6859 59.2002 34.3691 61.0322 33.8096C63.9445 32.922 68.9772 32.695 70.2565 29.4573C70.7253 28.2684 70.7047 26.721 71.501 25.6813C72.5885 24.2591 76.3476 24.6487 77.9608 24.4861C81.793 24.0999 85.6998 23.6225 89.5597 23.7272C93.5525 23.8354 90.3326 25.4133 88.4786 26.1891C84.7629 27.745 80.8007 28.9042 77.2632 30.8534C72.9281 33.2375 68.404 35.3719 63.9786 37.7483C58.8451 40.5023 57.3825 45.9763 51.8455 48.2798C47.3747 50.1391 42.0998 50.7452 37.2873 50.9836C37.1644 50.9892 31.67 50.8683 32.6588 49.8145C34.2222 48.1475 39.9873 48.0195 42.104 47.3823C47.364 45.7945 52.4976 44.4239 52.9082 38.2702" fill="#FFA621"/>
<path d="M72.8016 2.35723C73.5993 7.72024 72.651 13.3845 72.6127 18.7808C72.5743 24.0186 57.7973 23.4471 57.8229 18.6174C57.8499 13.4708 58.134 8.31927 58.3535 3.17622C58.4466 1.06581 71.2275 2.2172 72.8045 2.35723" fill="url(#paint2_linear)"/>
<path d="M72.8016 2.35723C73.4587 5.51435 59.1405 6.57875 58.367 2.86362C57.7114 -0.293506 72.0273 -1.35861 72.8016 2.35723Z" fill="#D84545"/>
<path d="M70.8113 2.17335C71.2332 3.80354 60.976 4.9422 60.3616 2.57153C59.9397 0.94063 70.1975 -0.196613 70.8113 2.17335Z" fill="url(#paint3_linear)"/>
<path d="M65.5214 4.96342C63.1617 5.08152 60.8162 4.85804 58.5872 4.03976C62.2895 7.0717 69.0703 6.09995 72.879 3.83112C70.4724 4.43581 67.9991 4.83753 65.5207 4.96342" fill="#F74B4B"/>
<path d="M52.727 86.7996C51.7951 79.3389 52.0025 71.828 52.5537 64.3469C52.7959 61.0561 55.059 61.4076 58.1277 60.3877C66.3121 57.6698 74.4951 54.9512 82.6788 52.2339C82.2973 56.447 82.0217 60.6713 81.9521 64.9056C81.9244 66.5796 83.4893 76.4088 82.2036 77.1203C73.0687 82.17 62.9643 84.999 52.7242 86.8025L52.727 86.7996ZM84.6471 49.7006C76.9116 51.5826 69.3338 54.0261 61.859 56.7468C58.4367 57.9923 55.0271 59.2795 51.636 60.6098C50.3517 61.1112 50.7587 61.7025 50.7587 63.0731V89.3414C62.0757 86.7579 73.1305 83.2486 83.8949 78.9188C85.4185 78.3057 83.6839 68.5252 83.6455 66.7402C83.5177 61.0561 83.9439 55.3437 84.6471 49.7027" fill="url(#paint4_linear)"/>
<path d="M81.9364 66.4658C81.9364 68.7275 82.0416 70.99 82.2462 73.2432C82.2987 73.8203 82.9849 76.3176 82.6773 76.853C81.7262 78.515 76.4129 80.0264 74.7749 80.7195C67.7675 83.6835 60.2103 85.4827 52.7263 86.801C51.7943 79.3404 52.0018 71.8295 52.553 64.3483C52.7952 61.0575 55.0583 61.409 58.1269 60.3891C66.3113 57.6712 74.4943 54.9526 82.678 52.2354C82.2376 56.9647 81.9251 61.7202 81.9251 66.4672" fill="#C6C6C6"/>
<path d="M82.3129 57.1719C82.1581 56.6195 75.6266 57.8671 75.0967 58.056C72.0004 59.1621 70.1429 61.8489 67.2106 63.1898C66.1473 63.6757 54.4481 67.6348 53.9957 66.0697C54.1463 66.5994 67.3271 59.2979 68.3273 58.8099C69.6591 58.1627 81.6673 54.9285 82.3137 57.1719" fill="#E5E5E5"/>
<path d="M80.3595 59.7689C77.7874 59.7689 75.0576 60.2442 72.7349 61.3694C70.135 62.6262 68.6938 65.1496 66.0016 66.3788C65.1272 66.7791 53.5858 70.1986 53.4047 69.5189C53.9076 71.2432 67.1758 67.0004 68.2704 66.4955C69.1136 66.1037 81.0336 57.87 81.4754 59.8806C81.1132 59.7668 80.7438 59.7293 80.3602 59.7689" fill="url(#paint5_linear)"/>
<path d="M81.219 68.0853C78.4054 68.0853 53.1909 77.6882 53.2108 77.7533C53.3138 78.1847 66.8626 74.3359 67.7292 74.0912C71.2567 73.0947 74.7067 71.7658 77.9785 70.1137C78.5184 69.84 80.8482 68.086 81.2176 68.086" fill="url(#paint6_linear)"/>
<path d="M81.8157 75.4272C79.0269 75.4272 53.7371 84.8505 53.8003 85.086C53.9615 85.6313 67.4436 81.675 68.3301 81.4232C71.8576 80.4288 75.3048 79.1013 78.5751 77.4527C79.115 77.1769 81.4591 75.4229 81.8142 75.4229" fill="url(#paint7_linear)"/>
<path d="M81.695 65.1383C82.2476 67.0754 54.1946 75.0099 53.6405 73.0686C52.7817 70.06 81.4392 64.2493 81.695 65.1347" fill="#E5E5E5"/>
<path d="M81.3114 72.9731C81.376 73.2001 77.0345 73.7963 76.7468 73.8614C72.9352 74.72 70.6721 77.044 67.4195 78.8665C66.2382 79.5292 54.4489 83.4487 53.8472 81.3362C53.9282 81.6049 80.0641 68.5429 81.3142 72.9695" fill="#E5E5E5"/>
</g>
<defs>
<radialGradient id="paint0_radial" cx="0" cy="0" r="1" gradientUnits="userSpaceOnUse" gradientTransform="translate(32.4691 51.1865) scale(62.2064 61.9359)">
<stop stop-color="#FFD53D"/>
<stop offset="0.3017" stop-color="#FFD23A"/>
<stop offset="0.5348" stop-color="#FFC830"/>
<stop offset="0.7449" stop-color="#FFB820"/>
<stop offset="0.9404" stop-color="#FFA209"/>
<stop offset="1" stop-color="#FF9900"/>
</radialGradient>
<linearGradient id="paint1_linear" x1="-7.28621" y1="-110.176" x2="97.9861" y2="214.115" gradientUnits="userSpaceOnUse">
<stop stop-color="#FFFA5F"/>
<stop offset="1" stop-color="#9F3300"/>
</linearGradient>
<linearGradient id="paint2_linear" x1="57.8243" y1="12.1985" x2="73.1213" y2="12.1985" gradientUnits="userSpaceOnUse">
<stop stop-color="#D8554C"/>
<stop offset="1" stop-color="#A10000"/>
</linearGradient>
<linearGradient id="paint3_linear" x1="60.3495" y1="2.37244" x2="70.824" y2="2.37244" gradientUnits="userSpaceOnUse">
<stop stop-color="#A10000"/>
<stop offset="0.0557" stop-color="#A60806"/>
<stop offset="0.2298" stop-color="#B31E14"/>
<stop offset="0.4241" stop-color="#BD2C1E"/>
<stop offset="0.6526" stop-color="#C23524"/>
<stop offset="1" stop-color="#C43826"/>
</linearGradient>
<linearGradient id="paint4_linear" x1="66.3337" y1="278.879" x2="66.3337" y2="-147.601" gradientUnits="userSpaceOnUse">
<stop stop-color="white"/>
<stop offset="1"/>
</linearGradient>
<linearGradient id="paint5_linear" x1="81.6435" y1="111.056" x2="-3.61525" y2="-227.939" gradientUnits="userSpaceOnUse">
<stop stop-color="#C6C6C6"/>
<stop offset="1"/>
</linearGradient>
<linearGradient id="paint6_linear" x1="74.1187" y1="98.2984" x2="28.723" y2="-82.1976" gradientUnits="userSpaceOnUse">
<stop stop-color="#C6C6C6"/>
<stop offset="1"/>
</linearGradient>
<linearGradient id="paint7_linear" x1="73.8495" y1="106.849" x2="27.0612" y2="-79.1838" gradientUnits="userSpaceOnUse">
<stop stop-color="#C6C6C6"/>
<stop offset="1"/>
</linearGradient>
<clipPath id="clip0">
<rect width="94" height="93" fill="white"/>
</clipPath>
</defs>
</svg>
