<?xml version="1.0" standalone="no"?>
<!DOCTYPE svg PUBLIC "-//W3C//DTD SVG 20010904//EN"
 "http://www.w3.org/TR/2001/REC-SVG-20010904/DTD/svg10.dtd">
<svg version="1.0" xmlns="http://www.w3.org/2000/svg"
 width="231.000000pt" height="232.000000pt" viewBox="0 0 231.000000 232.000000"
 preserveAspectRatio="xMidYMid meet">

<g transform="translate(0.000000,232.000000) scale(0.100000,-0.100000)"
fill="#000000" stroke="none">
<path d="M1043 2310 c-389 -54 -701 -329 -805 -707 -32 -119 -32 -356 1 -473
51 -180 129 -312 260 -440 262 -256 640 -337 988 -212 231 82 440 277 542 506
57 127 76 225 75 391 -1 120 -5 166 -23 230 -79 295 -296 537 -578 647 -134
52 -327 77 -460 58z m302 -56 c92 -18 196 -59 285 -113 74 -44 184 -134 210
-171 l19 -27 -286 -212 -287 -211 -126 0 -126 0 -275 200 c-151 111 -280 207
-288 214 -11 12 -3 24 49 76 220 216 514 303 825 244z m-634 -554 c151 -111
273 -206 271 -212 -4 -15 -166 -237 -172 -237 -6 0 -444 517 -448 529 -4 12
57 120 67 120 5 0 132 -90 282 -200z m1219 148 c16 -29 29 -58 28 -65 -2 -7
-95 -120 -208 -253 -113 -133 -213 -250 -223 -262 -10 -11 -19 -19 -21 -17
-51 63 -175 244 -169 249 4 4 85 64 178 133 94 69 213 157 265 196 52 38 101
70 107 71 7 0 26 -24 43 -52z m-1473 -256 c65 -76 170 -200 233 -275 63 -75
118 -136 121 -137 4 0 34 38 68 85 34 47 64 85 66 85 1 0 11 -35 20 -77 18
-83 42 -137 82 -191 l24 -33 -56 -277 c-32 -152 -59 -279 -61 -281 -9 -10
-102 21 -183 60 -142 67 -276 180 -361 304 -48 69 -108 202 -131 290 -29 107
-32 327 -6 425 25 93 50 160 59 160 4 0 60 -62 125 -138z m1566 56 c120 -385
-12 -783 -339 -1020 -86 -63 -301 -155 -318 -137 -2 2 -29 129 -61 281 l-56
277 24 33 c36 49 63 106 77 168 26 115 19 113 89 17 34 -48 65 -87 69 -86 4 0
59 62 122 137 246 292 351 412 359 412 5 0 20 -37 34 -82z m-800 -175 c-35 -2
-91 -2 -125 0 -35 2 -7 3 62 3 69 0 97 -1 63 -3z m-226 -85 c-3 -8 -6 -5 -6 6
-1 11 2 17 5 13 3 -3 4 -12 1 -19z m330 0 c-3 -8 -6 -5 -6 6 -1 11 2 17 5 13
3 -3 4 -12 1 -19z m-214 -925 c-7 -2 -19 -2 -25 0 -7 3 -2 5 12 5 14 0 19 -2
13 -5z m120 0 c-7 -2 -19 -2 -25 0 -7 3 -2 5 12 5 14 0 19 -2 13 -5z"/>
<path d="M96 574 c-86 -92 -88 -95 -71 -114 25 -28 33 -25 70 17 l32 37 37
-32 c41 -36 47 -37 65 -19 10 10 4 19 -30 48 l-41 35 24 29 25 29 34 -32 c40
-38 67 -48 83 -32 8 9 -5 26 -54 70 -36 33 -69 59 -75 59 -5 1 -50 -42 -99
-95z"/>
<path d="M2065 609 c-30 -27 -45 -50 -45 -66 0 -14 25 -57 60 -104 77 -101 95
-103 175 -26 30 29 55 61 55 70 0 9 -32 51 -71 92 -87 92 -107 95 -174 34z
m125 -75 c25 -30 47 -59 48 -65 4 -10 -37 -48 -53 -49 -10 0 -105 114 -105
126 0 15 34 44 49 44 9 -1 36 -26 61 -56z"/>
<path d="M1928 509 c-10 -5 -18 -14 -18 -19 0 -13 133 -230 141 -230 4 0 17 8
29 18 l23 18 -74 112 c-41 61 -76 111 -79 111 -3 0 -13 -4 -22 -10z"/>
<path d="M350 473 c-25 -19 -76 -58 -113 -85 -54 -40 -65 -53 -56 -64 18 -22
49 -27 68 -10 15 14 20 13 59 -10 36 -22 42 -30 42 -59 0 -25 6 -37 21 -45 11
-7 23 -9 26 -6 5 4 51 221 56 260 1 12 -9 26 -28 37 l-30 18 -45 -36z m27 -96
c-11 -50 -20 -55 -51 -32 -18 14 -17 16 20 49 21 19 40 34 41 33 1 -1 -4 -23
-10 -50z"/>
<path d="M1780 423 c-78 -40 -79 -47 -41 -145 42 -108 56 -128 87 -128 35 0
121 46 139 74 15 22 15 27 0 55 -17 33 -30 38 -57 18 -11 -9 -14 -18 -7 -28 5
-8 9 -19 9 -25 0 -11 -42 -34 -64 -34 -10 0 -76 131 -76 151 0 11 58 31 69 24
6 -3 11 -13 11 -21 0 -8 3 -14 6 -14 5 0 45 20 52 26 6 4 -31 64 -39 64 -4 0
-13 2 -21 5 -7 3 -38 -7 -68 -22z"/>
<path d="M566 393 c-8 -19 14 -40 52 -50 12 -3 22 -9 22 -14 0 -11 -104 -95
-152 -122 -21 -12 -38 -26 -38 -30 0 -9 102 -57 164 -77 32 -10 40 -10 47 1
14 22 6 30 -51 52 l-54 20 30 24 c77 64 154 135 154 142 0 7 -146 71 -162 71
-3 0 -9 -8 -12 -17z"/>
<path d="M1559 341 c-77 -24 -81 -38 -49 -173 22 -95 38 -112 90 -103 51 9
119 42 126 59 6 17 -28 130 -58 189 -16 32 -23 37 -51 36 -17 0 -44 -4 -58 -8z
m79 -109 c12 -38 22 -75 22 -84 0 -18 -20 -28 -54 -28 -20 0 -24 9 -39 73 -21
89 -21 94 1 100 43 12 48 7 70 -61z"/>
<path d="M785 318 c-20 -55 -65 -234 -61 -245 3 -7 17 -13 30 -13 21 0 27 7
36 43 27 110 22 109 59 14 31 -81 35 -87 62 -87 16 0 29 3 29 8 0 4 7 50 15
102 22 140 20 160 -9 160 -22 0 -25 -6 -37 -70 -7 -39 -15 -68 -18 -64 -3 3
-18 40 -32 82 -20 61 -30 78 -47 80 -12 2 -24 -3 -27 -10z"/>
<path d="M1310 291 c-21 -4 -39 -14 -45 -27 -15 -31 -3 -223 15 -234 23 -15
117 -12 157 5 l36 15 -7 57 c-4 32 -10 61 -14 65 -4 4 -26 4 -49 1 -34 -4 -43
-10 -43 -25 0 -11 11 -23 26 -28 35 -14 28 -42 -14 -51 -41 -8 -47 2 -56 97
-5 60 -3 73 10 78 31 12 56 6 61 -14 3 -13 14 -20 29 -20 20 0 24 5 24 29 0
55 -35 69 -130 52z"/>
<path d="M1026 279 c-9 -28 -27 -251 -21 -257 4 -4 49 -9 101 -10 l94 -4 0 26
c0 25 -1 26 -68 26 l-69 0 5 30 c4 29 6 30 53 30 41 0 49 3 49 19 0 20 -25 31
-73 31 -26 0 -28 3 -25 33 3 32 3 32 66 35 54 3 62 6 62 22 0 14 -7 20 -24 20
-12 0 -51 3 -84 6 -48 5 -63 4 -66 -7z"/>
</g>
</svg>
