<svg width="125" height="112" viewBox="0 0 125 112" fill="none" xmlns="http://www.w3.org/2000/svg">
<path d="M41.7906 14.1194C48.6937 10.1445 55.5948 6.16715 62.4991 2.19414C76.0129 9.96771 89.519 17.7539 103.03 25.5325C103.974 26.0861 104.936 26.6114 105.869 27.1821C97.7233 31.8849 89.5678 36.5719 81.4185 41.2696C75.1306 44.8865 68.8484 48.5142 62.5574 52.1266C61.408 51.513 60.3036 50.8179 59.1568 50.1998C58.0588 49.5849 56.9664 48.9593 55.8867 48.314C55.0031 47.7787 54.0974 47.2818 53.2076 46.7572C52.9645 46.6145 52.7196 46.475 52.469 46.3468C51.3665 45.7356 50.2766 45.0999 49.1899 44.4617C48.495 44.0279 47.7735 43.639 47.0684 43.223C46.6463 42.9837 46.2324 42.7306 45.8013 42.5083C44.7033 41.8941 43.6115 41.2671 42.5311 40.6226C41.414 39.9622 40.2925 39.3075 39.1539 38.6838C38.0432 38.0556 36.9362 37.4205 35.8375 36.7721C34.928 36.2096 33.985 35.7033 33.066 35.1565C32.8711 35.0423 32.6723 34.9368 32.4717 34.8346C31.3578 34.2096 30.2534 33.5656 29.1489 32.9242C28.0483 32.2556 26.93 31.6154 25.8015 30.9948C24.6914 30.3654 23.5844 29.7315 22.4858 29.0825C21.3991 28.4146 20.2725 27.8135 19.1814 27.1525C20.2624 26.5054 21.3598 25.8848 22.4547 25.2617C23.3655 25.7365 24.2383 26.2788 25.1338 26.7813C29.3983 29.2125 33.6419 31.6797 37.8981 34.1243C46.0987 38.8523 54.3062 43.5678 62.5035 48.3002C62.9687 48.0804 63.3978 47.7963 63.8472 47.5476C64.5295 47.1506 65.2218 46.7711 65.894 46.3563C70.3503 43.773 74.8198 41.2123 79.2824 38.639C84.7962 35.4571 90.3196 32.291 95.8296 29.1015C96.4581 28.7542 97.0764 28.3881 97.6998 28.0308C98.1846 27.7391 98.6997 27.4947 99.1573 27.1583C98.1631 26.5503 97.139 25.9916 96.1327 25.4025C85.0335 19.0085 73.9318 12.6181 62.8326 6.22337C62.7212 6.16277 62.6091 6.10406 62.4984 6.04467C56.5219 9.46585 50.5625 12.918 44.5905 16.3479C44.3196 16.495 44.0696 16.6838 43.7829 16.8013C43.6626 16.8549 43.5398 16.7785 43.4291 16.7388C42.2126 16.1624 40.9412 15.6977 39.6304 15.3846C40.3317 14.9331 41.0728 14.5449 41.7906 14.1194Z" fill="#C83737" stroke="#C83737" stroke-width="0.5"/>
<path d="M44.5905 16.3479C50.5626 12.9179 56.522 9.46584 62.4985 6.04466C62.4997 7.32246 62.4959 8.60025 62.5003 9.87811C58.4669 12.1951 54.4391 14.5215 50.4069 16.8404C49.3107 17.4806 48.2006 18.0968 47.1114 18.7483C48.1411 19.4244 49.1487 20.1353 50.117 20.896C51.7157 22.1814 53.2283 23.5893 54.5081 25.1954C55.2119 26.0906 55.8549 27.0515 56.2613 28.1209C56.436 28.5666 56.5087 29.0427 56.5676 29.5162C59.6599 31.294 62.7485 33.0781 65.8414 34.8541C65.8598 38.2159 65.8433 41.5777 65.8497 44.9396C65.8547 45.4118 65.8168 45.8872 65.894 46.3562C65.2218 46.771 64.5295 47.1505 63.8472 47.5475C63.3978 47.7963 62.9687 48.0804 62.5035 48.3001C62.4915 44.949 62.5022 41.5985 62.4978 38.2474C62.4959 37.7505 62.5111 37.2543 62.4839 36.7581C59.9466 35.313 57.4226 33.8452 54.8903 32.3918C54.3346 32.0629 53.7644 31.758 53.2151 31.419C53.167 30.3129 52.6486 29.3015 52.0752 28.3785C51.0917 26.8551 49.8423 25.5204 48.5113 24.295C46.7823 22.7192 44.8886 21.3234 42.876 20.1283C40.9766 19.0039 38.9678 18.0266 36.8305 17.4445C36.2609 17.2784 35.6723 17.1976 35.0894 17.0953C35.1033 16.6023 35.271 16.0922 35.6539 15.7613C36.1881 15.2884 36.9343 15.1691 37.6247 15.1533C38.3001 15.1464 38.9703 15.2518 39.6304 15.3844C40.9411 15.6976 42.2126 16.1622 43.4291 16.7386C43.5399 16.7784 43.6627 16.8548 43.7829 16.8011C44.0696 16.6838 44.3196 16.495 44.5905 16.3479Z" fill="#782121" stroke="#782121" stroke-width="0.5"/>
<path d="M62.4985 6.04466C62.6093 6.10398 62.7213 6.1627 62.8327 6.22336C73.9318 12.6181 85.0336 19.0084 96.1328 25.4025C97.1391 25.9915 98.1631 26.5503 99.1574 27.1582C98.6998 27.4947 98.1846 27.7391 97.6999 28.0307C97.0765 28.3881 96.4581 28.7542 95.8297 29.1015C94.8778 28.5087 93.888 27.9771 92.9221 27.4069C86.0728 23.4637 79.2248 19.5191 72.3768 15.5746C70.1718 14.2974 67.9535 13.0436 65.758 11.7506C64.6751 11.1211 63.5935 10.4905 62.5004 9.87805C62.4959 8.60025 62.4998 7.32246 62.4985 6.04466Z" fill="#D35F5F" stroke="#D35F5F" stroke-width="0.5"/>
<path d="M50.4069 16.8404C54.4391 14.5215 58.4669 12.1951 62.5004 9.87805C63.5934 10.4904 64.6751 11.1211 65.758 11.7506C65.5592 11.9918 65.2789 12.1351 65.008 12.2771C60.5555 14.8441 56.0998 17.4054 51.648 19.973C51.1341 20.2742 50.5974 20.5406 50.117 20.896C49.1487 20.1353 48.1411 19.4244 47.1113 18.7483C48.2006 18.0967 49.3108 17.4805 50.4069 16.8404Z" fill="#0C242C" stroke="#0C242C" stroke-width="0.5"/>
<path d="M65.7579 11.7506C67.9535 13.0436 70.1718 14.2974 72.3768 15.5746C79.2248 19.5191 86.0728 23.4637 92.9221 27.407C93.888 27.977 94.8778 28.5086 95.8297 29.1015C90.3196 32.291 84.7963 35.4571 79.2825 38.639C74.8199 41.2123 70.3504 43.773 65.8941 46.3563C65.8169 45.8873 65.8548 45.4118 65.8498 44.9396C65.8434 41.5778 65.8599 38.216 65.8416 34.8541C62.7486 33.0782 59.66 31.2941 56.5677 29.5162C56.5088 29.0428 56.4361 28.5667 56.2614 28.121C55.8551 27.0515 55.212 26.0906 54.5082 25.1955C53.2285 23.5894 51.7159 22.1815 50.1171 20.8961C50.5975 20.5407 51.1342 20.2743 51.6481 19.9731C56.0999 17.4055 60.5556 14.8442 65.0081 12.2772C65.2788 12.1351 65.5592 11.9918 65.7579 11.7506Z" fill="#12333B" stroke="#12333B" stroke-width="0.5"/>
<path d="M25.7168 11.8472C25.7927 11.7734 25.8832 11.834 25.9586 11.8737C28.3022 13.2185 30.6313 14.5878 32.9768 15.9294C33.6255 16.3145 34.2957 16.6655 34.9312 17.0734C34.0407 17.0689 33.0338 17.0563 32.323 17.6788C31.9154 18.014 31.7876 18.5475 31.7344 19.0481C30.723 18.4881 29.73 17.8947 28.7243 17.3252C27.6338 16.687 26.5288 16.0739 25.4478 15.4193C24.4624 14.8498 23.4725 14.288 22.4903 13.7128C23.5604 13.0821 24.6427 12.4716 25.7168 11.8472Z" fill="#782121" stroke="#782121" stroke-width="0.5"/>
<path d="M22.4586 13.6938L22.4902 13.7128C23.4725 14.288 24.4624 14.8498 25.4478 15.4193C26.5288 16.0739 27.6338 16.687 28.7243 17.3252C29.73 17.8947 30.723 18.4882 31.7343 19.0481C31.7875 18.5475 31.9153 18.014 32.3229 17.6788C33.0337 17.0563 34.0406 17.0689 34.9311 17.0734C34.9836 17.0778 35.0362 17.0853 35.0894 17.0955C35.6722 17.1978 36.2608 17.2786 36.8305 17.4446C38.9678 18.0267 40.9766 19.004 42.876 20.1284C44.8886 21.3235 46.7822 22.7194 48.5113 24.2952C49.8423 25.5206 51.0917 26.8552 52.0752 28.3786C52.6486 29.3016 53.167 30.313 53.2151 31.4191C53.7644 31.7581 54.3347 32.0631 54.8903 32.392C57.4225 33.8453 59.9466 35.3132 62.4839 36.7582C62.5111 37.2544 62.4959 37.7507 62.4978 38.2475C62.5022 41.5986 62.4914 44.9491 62.5035 48.3002C54.3062 43.5677 46.0987 38.8523 37.8982 34.1243C33.642 31.6798 29.3984 29.2125 25.1339 26.7813C24.2383 26.2787 23.3656 25.7365 22.4548 25.2617C22.4782 21.9302 22.458 18.5981 22.4649 15.2665C22.4618 14.7425 22.4712 14.2179 22.4586 13.6938ZM30.1306 20.9182C29.9723 20.9573 30.0166 21.1423 30.0059 21.2635C30.0135 21.9586 30.0027 22.6544 30.0104 23.3501C29.9964 23.4927 30.1167 23.5887 30.1971 23.6897C31.0243 24.6115 31.8356 25.5471 32.6609 26.4708C32.7122 26.5421 32.7938 26.6065 32.7989 26.7012C32.8185 27.0017 32.802 27.3041 32.8007 27.6059C32.5476 27.4784 32.3026 27.3351 32.059 27.1911C32.0533 26.7757 32.059 26.3597 32.0539 25.9443C31.3729 25.6652 30.702 25.3603 30.016 25.0945C30.002 25.5011 30.0109 25.9083 30.0058 26.3155C30.009 26.4689 29.9907 26.6349 30.0799 26.7707C30.3248 27.1753 30.5894 27.5686 30.8343 27.9733C30.9393 28.1362 31.0299 28.3256 31.2127 28.4159C32.0893 28.9134 32.9589 29.4222 33.8348 29.9216C34.1779 29.7821 34.5178 29.6343 34.8538 29.4797C34.8544 28.592 34.857 27.705 34.8538 26.8179C34.8684 26.6923 34.781 26.597 34.7057 26.5092C33.8702 25.5755 33.0512 24.6279 32.2165 23.6929C31.962 23.4618 32.1 23.0887 32.0683 22.7882C32.3202 22.927 32.5702 23.0704 32.8164 23.2193C32.8138 23.5306 32.8138 23.8419 32.8221 24.1531C33.5043 24.4252 34.1727 24.732 34.8568 25.0003C34.8682 24.6808 34.865 24.3613 34.8676 24.0426C34.8651 23.8885 34.8796 23.7218 34.7854 23.5899C34.5144 23.1669 34.2392 22.7465 33.9708 22.3222C33.8493 22.1 33.6031 22.0066 33.3974 21.8828C32.6056 21.4384 31.8296 20.9624 31.0303 20.5343C30.716 20.6196 30.43 20.7913 30.1306 20.9182ZM35.1071 22.8816C35.1002 23.5135 35.0983 24.1461 35.1084 24.7787C35.4982 25.0035 35.8989 25.2118 36.2767 25.4561C36.333 25.6739 36.2995 25.9031 36.3071 26.126C36.3077 27.8672 36.302 29.6091 36.3097 31.3502C36.9844 31.7316 37.6502 32.1287 38.328 32.505C38.3413 30.5478 38.3299 28.5913 38.3336 26.6343C38.7393 26.8514 39.1241 27.1071 39.5387 27.3092C39.5564 26.6823 39.545 26.0553 39.5456 25.4291C38.0672 24.5773 36.5963 23.7124 35.1071 22.8816ZM39.795 26.59C39.7849 28.4145 39.7976 30.2391 39.7893 32.0636C39.7887 32.2019 39.7868 32.3509 39.8735 32.4689C40.1507 32.9064 40.4311 33.3433 40.7077 33.7821C40.8317 34.0018 41.0817 34.0889 41.2855 34.2158C42.0551 34.6438 42.8038 35.1117 43.5823 35.5221C43.8481 35.4589 44.0886 35.32 44.3443 35.2253C44.4557 35.171 44.6399 35.1312 44.6044 34.9671C44.6076 33.1767 44.6019 31.3862 44.607 29.5958C44.6095 29.467 44.5924 29.3351 44.5171 29.2265C44.2836 28.8502 44.0393 28.4803 43.8089 28.1021C43.7051 27.9379 43.6108 27.7524 43.4304 27.6602C42.6931 27.2378 41.9558 26.8154 41.2217 26.388C41.0818 26.3116 40.9495 26.2132 40.7932 26.1753C40.4513 26.2895 40.1317 26.4612 39.795 26.59ZM45.236 28.7075C45.2291 31.2978 45.2386 33.8881 45.2316 36.4792C45.9037 36.8731 46.5733 37.274 47.2613 37.6402C47.2828 36.6029 47.2651 35.565 47.2708 34.5271C47.5367 34.6748 47.7987 34.8302 48.0651 34.9786C48.0803 36.0259 48.067 37.0733 48.0715 38.1207C48.7455 38.5045 49.4094 38.906 50.0917 39.2754C50.1068 38.3436 50.0911 37.4117 50.1005 36.4798C50.0954 36.3132 50.1182 36.1294 50.0144 35.9861C49.7707 35.6042 49.5233 35.2241 49.2789 34.8428C49.5555 34.7159 49.8328 34.5896 50.1099 34.4621C50.1118 33.8705 50.115 33.2796 50.1112 32.6887C50.1182 32.5151 50.0075 32.3737 49.9214 32.2341C49.6689 31.8515 49.4296 31.4601 49.1827 31.0738C49.0821 30.897 48.8942 30.8048 48.7245 30.7082C47.5582 30.0478 46.4031 29.366 45.236 28.7075ZM50.7385 31.8748C50.7436 34.4734 50.729 37.0726 50.7455 39.6711C52.148 40.4496 53.5195 41.2829 54.9245 42.055C54.9435 41.4142 54.929 40.7734 54.9327 40.1327C54.2663 39.7343 53.5884 39.3561 52.9169 38.9678C52.8612 38.9255 52.7676 38.889 52.7783 38.805C52.7656 38.4716 52.7802 38.1389 52.777 37.8062C53.4428 38.1844 54.1036 38.572 54.7706 38.9489C54.7719 38.3226 54.7833 37.6963 54.7643 37.0713C54.0972 36.7039 53.4473 36.3067 52.7795 35.9419C52.7738 35.5991 52.7782 35.2569 52.7726 34.9141C53.501 35.3301 54.2245 35.7544 54.9548 36.1679C54.9529 35.5423 54.9617 34.9172 54.9497 34.2922C53.5417 33.4942 52.1461 32.6741 50.7385 31.8748Z" fill="#D35F5F" stroke="#D35F5F" stroke-width="0.5"/>
<path d="M30.1306 20.9182C30.4299 20.7913 30.716 20.6196 31.0305 20.5344C31.8299 20.9624 32.6058 21.4384 33.3976 21.8829C33.6033 22.0067 33.8494 22.1001 33.971 22.3223C34.2394 22.7465 34.5146 23.167 34.7856 23.59C34.8799 23.722 34.8653 23.8886 34.8678 24.0426C34.8653 24.3614 34.8684 24.6809 34.857 25.0004C34.1729 24.7321 33.5045 24.4252 32.8223 24.1531C32.814 23.8419 32.814 23.5306 32.8166 23.2194C32.5704 23.0704 32.3204 22.9271 32.0685 22.7882C32.1001 23.0887 31.9622 23.4619 32.2167 23.693C33.0514 24.628 33.8704 25.5756 34.7059 26.5093C34.7812 26.5971 34.8685 26.6924 34.854 26.818C34.8572 27.7051 34.8546 28.592 34.854 29.4797C34.518 29.6344 34.1781 29.7821 33.835 29.9217C32.9591 29.4223 32.0895 28.9134 31.2129 28.416C31.03 28.3257 30.9395 28.1363 30.8345 27.9734C30.5895 27.5687 30.325 27.1754 30.0801 26.7707C29.9908 26.635 30.0092 26.469 30.006 26.3155C30.0111 25.9083 30.0023 25.5011 30.0162 25.0946C30.7022 25.3604 31.3731 25.6653 32.0541 25.9444C32.0592 26.3598 32.0535 26.7758 32.0592 27.1912C32.3028 27.3352 32.5478 27.4785 32.8009 27.606C32.8022 27.3042 32.8187 27.0018 32.7991 26.7013C32.794 26.6066 32.7124 26.5421 32.6611 26.4708C31.8358 25.5472 31.0244 24.6116 30.1973 23.6898C30.1169 23.5888 29.9966 23.4928 30.0106 23.3502C30.0029 22.6545 30.0137 21.9587 30.0061 21.2636C30.0167 21.1423 29.9724 20.9573 30.1306 20.9182Z" fill="white" stroke="white" stroke-width="0.5"/>
<path d="M35.1071 22.8816C36.5963 23.7124 38.0672 24.5773 39.5456 25.429C39.545 26.0553 39.5564 26.6822 39.5387 27.3091C39.1242 27.107 38.7393 26.8513 38.3336 26.6341C38.3299 28.5913 38.3412 30.5478 38.328 32.5048C37.6502 32.1285 36.9843 31.7315 36.3096 31.3501C36.302 29.6089 36.3078 27.8671 36.3071 26.1259C36.2995 25.903 36.333 25.6739 36.2767 25.456C35.8988 25.2117 35.4982 25.0034 35.1084 24.7786C35.0982 24.1461 35.1001 23.5135 35.1071 22.8816Z" fill="white" stroke="white" stroke-width="0.5"/>
<path d="M39.7951 26.59C40.1318 26.4612 40.4513 26.2895 40.7931 26.1752C40.9495 26.2131 41.0817 26.3116 41.2216 26.388C41.9558 26.8154 42.6931 27.2378 43.4304 27.6601C43.6107 27.7523 43.705 27.9379 43.8088 28.1021C44.0392 28.4802 44.2835 28.8502 44.517 29.2264C44.5923 29.3351 44.6094 29.4669 44.6069 29.5957C44.6018 31.3862 44.6075 33.1766 44.6043 34.9671C44.6398 35.1312 44.4556 35.171 44.3442 35.2253C44.0885 35.3199 43.8481 35.4588 43.5822 35.522C42.8037 35.1116 42.055 34.6438 41.2854 34.2157C41.0816 34.0888 40.8316 34.0017 40.7076 33.782C40.4311 33.3432 40.1506 32.9063 39.8735 32.4688C39.7868 32.3508 39.7886 32.2018 39.7893 32.0636C39.7975 30.2391 39.7849 28.4145 39.7951 26.59ZM41.8209 28.4581C41.8183 29.9045 41.8159 31.3502 41.8222 32.796C42.0684 32.9336 42.3108 33.0782 42.5614 33.2089C42.5702 31.8787 42.5595 30.5478 42.5671 29.2176C42.5614 29.1021 42.5748 28.9822 42.5336 28.8723C42.3076 28.7157 42.057 28.5989 41.8209 28.4581Z" fill="white" stroke="white" stroke-width="0.5"/>
<path d="M19.1459 27.1311L19.1814 27.1525C20.2725 27.8135 21.3991 28.4146 22.4858 29.0825C21.9269 29.9847 21.4187 30.9178 20.8782 31.8313C19.1959 34.7355 17.52 37.644 15.8314 40.5444C15.8213 40.5708 15.8023 40.6226 15.7928 40.6485C15.1232 40.264 14.4542 39.877 13.7846 39.4919C13.3402 39.2306 12.877 38.9982 12.4612 38.6921C14.6866 34.8365 16.9264 30.9898 19.1459 27.1311Z" fill="#D35F5F" stroke="#D35F5F" stroke-width="0.5"/>
<path d="M81.4184 41.2697C89.5677 36.572 97.7232 31.885 105.869 27.1822C105.862 28.4303 105.872 29.6779 105.866 30.926C105.877 31.0384 105.747 31.0738 105.675 31.1268C104.624 31.7171 103.591 32.3376 102.538 32.9223C101.545 33.4576 100.58 34.0435 99.5992 34.5997C89.9418 40.1604 80.285 45.7218 70.6281 51.2845C67.9199 52.837 65.2219 54.4089 62.5074 55.9519C62.4865 57.2461 62.5048 58.541 62.4985 59.8359C62.4871 61.1276 62.5226 62.4199 62.4795 63.7104C62.0372 63.9137 61.6302 64.1838 61.2049 64.4194C60.541 64.8045 59.8726 65.1808 59.2118 65.5703C59.1922 65.5816 59.1536 65.6056 59.1346 65.617C58.0296 66.2357 56.9429 66.8866 55.8366 67.5034C55.8264 66.4844 55.8384 65.4661 55.8309 64.4478C55.836 64.1226 55.7815 63.7703 55.9518 63.4755C57.317 61.1308 58.6707 58.7797 60.0321 56.4324C60.6637 55.3541 61.2631 54.2581 61.8998 53.1823C62.1169 52.8294 62.2783 52.438 62.5574 52.1267C68.8483 48.5142 75.1306 44.8866 81.4184 41.2697Z" fill="#782121" stroke="#782121" stroke-width="0.5"/>
<path d="M41.8209 28.4581C42.057 28.5989 42.3076 28.7157 42.5336 28.8723C42.5747 28.9821 42.5614 29.1021 42.5672 29.2176C42.5595 30.5478 42.5703 31.8787 42.5614 33.2089C42.3108 33.0782 42.0684 32.9336 41.8222 32.796C41.8159 31.3502 41.8184 29.9045 41.8209 28.4581Z" fill="#D35F5F" stroke="#D35F5F" stroke-width="0.5"/>
<path d="M45.2361 28.7075C46.4032 29.366 47.5582 30.0478 48.7246 30.7082C48.8943 30.8047 49.0822 30.8969 49.1828 31.0737C49.4297 31.4601 49.6689 31.8515 49.9215 32.2341C50.0076 32.3736 50.1183 32.515 50.1113 32.6886C50.1151 33.2796 50.1119 33.8705 50.11 34.4621C49.8328 34.5896 49.5556 34.7159 49.2791 34.8427C49.5233 35.2241 49.7708 35.6041 50.0145 35.9861C50.1183 36.1294 50.0956 36.3131 50.1006 36.4798C50.0911 37.4116 50.1069 38.3435 50.0918 39.2754C49.4095 38.9061 48.7456 38.5045 48.0716 38.1206C48.0671 37.0733 48.0804 36.0259 48.0652 34.9785C47.7988 34.8301 47.5368 34.6749 47.2709 34.5271C47.2652 35.565 47.2829 36.6029 47.2614 37.6402C46.5734 37.274 45.9038 36.8731 45.2317 36.4791C45.2386 33.8882 45.2291 31.2979 45.2361 28.7075ZM47.2665 31.5055C47.2741 31.9563 47.2696 32.4071 47.2702 32.8585C47.5354 33.0113 47.8 33.1653 48.0664 33.3174C48.0721 32.8628 48.0816 32.4076 48.0588 31.9531C47.7905 31.8111 47.5298 31.6552 47.2665 31.5055Z" fill="white" stroke="white" stroke-width="0.5"/>
<path d="M20.8782 31.8313C21.4187 30.9178 21.9269 29.9847 22.4858 29.0825C23.5845 29.7315 24.6915 30.3653 25.8015 30.9948C23.6016 34.8408 21.3605 38.6648 19.1522 42.5064C18.3883 42.1118 17.6579 41.6567 16.9093 41.2356C16.5473 41.0095 16.1352 40.853 15.8314 40.5442C17.52 37.644 19.196 34.7354 20.8782 31.8313Z" fill="white" stroke="white" stroke-width="0.5"/>
<path d="M25.8016 30.9948C26.9301 31.6154 28.0484 32.2556 29.1491 32.9242C27.8997 35.0574 26.67 37.202 25.4295 39.3404C24.4498 41.0487 23.4416 42.7407 22.4808 44.4592L22.4422 44.4415C21.9941 44.2534 21.5922 43.9769 21.1675 43.7446C20.4903 43.3639 19.8321 42.9478 19.1378 42.5993C19.141 42.5766 19.1486 42.5298 19.1524 42.5065C21.3605 38.6648 23.6017 34.8408 25.8016 30.9948Z" fill="#D35F5F" stroke="#D35F5F" stroke-width="0.5"/>
<path d="M47.2664 31.5055C47.5297 31.6552 47.7904 31.8111 48.0588 31.9531C48.0816 32.4077 48.0721 32.8629 48.0664 33.3174C47.7999 33.1653 47.5354 33.0112 47.2702 32.8585C47.2696 32.4071 47.274 31.9563 47.2664 31.5055Z" fill="#D35F5F" stroke="#D35F5F" stroke-width="0.5"/>
<path d="M50.7386 31.8748C52.1462 32.6741 53.5417 33.4942 54.9499 34.2922C54.9619 34.9172 54.9531 35.5422 54.955 36.1679C54.2246 35.7544 53.5012 35.3301 52.7727 34.9141C52.7784 35.2569 52.774 35.5991 52.7797 35.9419C53.4474 36.3068 54.0974 36.7039 54.7645 37.0713C54.7835 37.6963 54.7721 38.3226 54.7708 38.9489C54.1037 38.572 53.443 38.1843 52.7772 37.8062C52.7803 38.1389 52.7658 38.4716 52.7785 38.8049C52.7677 38.8889 52.8614 38.9255 52.9171 38.9678C53.5886 39.3561 54.2664 39.7343 54.9329 40.1326C54.9291 40.7735 54.9437 41.4143 54.9247 42.055C53.5196 41.2829 52.1481 40.4496 50.7456 39.6711C50.729 37.0726 50.7436 34.4734 50.7386 31.8748Z" fill="white" stroke="white" stroke-width="0.5"/>
<path d="M25.4294 39.3403C26.6699 37.202 27.8996 35.0574 29.149 32.9241C30.2533 33.5655 31.3577 34.2095 32.4717 34.8345C31.347 36.832 30.1781 38.8043 29.037 40.7924C27.968 42.6428 26.8933 44.4894 25.8275 46.3411C25.3212 46.11 24.8586 45.8007 24.3719 45.5336C23.739 45.1801 23.1244 44.7925 22.4808 44.4591C23.4415 42.7407 24.4497 41.0487 25.4294 39.3403Z" fill="white" stroke="white" stroke-width="0.5"/>
<path d="M99.5992 34.5997C100.58 34.0435 101.545 33.4576 102.538 32.9223C102.542 34.2083 102.543 35.4949 102.537 36.7809C98.3967 39.1459 94.2714 41.5374 90.138 43.9137C80.9254 49.222 71.7072 54.5219 62.4985 59.8358C62.5049 58.541 62.4865 57.2461 62.5074 55.9519C65.2219 54.4089 67.9199 52.8369 70.6281 51.2844C80.2849 45.7218 89.9418 40.1604 99.5992 34.5997Z" fill="#ACACAC" stroke="#ACACAC" stroke-width="0.5"/>
<path d="M32.4717 34.8346C32.6724 34.9369 32.8711 35.0423 33.066 35.1566C33.985 35.7033 34.928 36.2096 35.8375 36.7721C35.5869 37.1244 35.39 37.5101 35.1698 37.8814C33.1711 41.3329 31.1749 44.7862 29.1743 48.237C29.1674 48.2654 29.1521 48.3222 29.1452 48.3507C28.6287 48.0116 28.0794 47.7294 27.549 47.4144C26.98 47.0918 26.4224 46.7471 25.8408 46.4459C25.8199 47.7142 25.8326 48.9826 25.8364 50.2503L25.7833 50.244C25.8048 49.3178 25.7883 48.391 25.7934 47.4649C25.7997 47.0906 25.7649 46.7124 25.8276 46.3411C26.8934 44.4895 27.9681 42.6428 29.037 40.7924C30.1781 38.8044 31.347 36.8321 32.4717 34.8346Z" fill="#D35F5F" stroke="#D35F5F" stroke-width="0.5"/>
<path d="M35.1698 37.8813C35.3901 37.5101 35.5869 37.1244 35.8375 36.7721C36.9362 37.4204 38.0432 38.0556 39.1539 38.6838C36.9356 42.521 34.7078 46.3532 32.4964 50.1942C31.766 49.8135 31.0667 49.3772 30.3484 48.9751C29.9566 48.7301 29.5174 48.554 29.1743 48.2371C31.1749 44.7862 33.1711 41.3329 35.1698 37.8813Z" fill="white" stroke="white" stroke-width="0.5"/>
<path d="M90.1379 43.9137C94.2713 41.5374 98.3966 39.1459 102.537 36.781C102.54 43.499 102.538 50.2169 102.538 56.9349C102.544 57.9097 102.524 58.885 102.553 59.8598C102.512 62.4154 102.548 64.973 102.535 67.5298C101.6 68.0355 100.69 68.5861 99.765 69.1101C90.6038 74.3867 81.4419 79.6621 72.2807 84.9387C69.0218 86.8214 65.7529 88.6863 62.501 90.5803C62.4883 90.5715 62.4643 90.5544 62.4517 90.5462C62.5409 89.9521 62.4833 89.3511 62.4985 88.7538C62.4947 81.6785 62.5055 74.6026 62.4935 67.5273C62.4947 66.2551 62.5175 64.9818 62.4796 63.7102C62.5226 62.4198 62.4872 61.1275 62.4986 59.8357C71.7071 54.5219 80.9254 49.2219 90.1379 43.9137ZM95.8562 44.4402V44.4932C95.753 44.5374 95.6518 44.5828 95.555 44.6359C91.205 47.141 86.857 49.6487 82.5051 52.1493C81.3982 52.7756 80.3014 53.4189 79.1963 54.0484C78.9792 54.1841 78.7571 54.3104 78.5362 54.4379C74.3065 56.8736 70.0775 59.3105 65.8472 61.7455C65.8149 62.8769 65.8421 64.0101 65.8332 65.1421C65.8332 67.1207 65.8332 69.0986 65.8332 71.0766C65.8472 71.8045 65.8035 72.5343 65.8573 73.261L65.9111 73.2301C65.7642 73.4643 65.8598 73.7775 65.8358 74.0439C65.8472 75.0584 65.8168 76.0742 65.8509 77.0894C66.0655 76.9891 66.2731 76.8742 66.475 76.7511C71.8223 73.6689 77.1729 70.5931 82.5184 67.5084L82.519 67.4642C82.8854 67.3443 83.1936 67.1063 83.5303 66.927C88.3068 64.1801 93.0802 61.4269 97.8554 58.6787C98.2896 58.4104 98.7643 58.2033 99.163 57.882L99.2029 57.9041C99.2042 54.3403 99.2029 50.7764 99.2035 47.2126C99.1947 45.655 99.2206 44.0969 99.1902 42.5401C98.0726 43.1618 96.9815 43.8316 95.8562 44.4402Z" fill="#CCCCCC" stroke="#CCCCCC" stroke-width="0.5"/>
<path d="M12.4556 42.5292C12.4625 41.2501 12.4511 39.971 12.4612 38.692C12.877 38.9982 13.3403 39.2305 13.7846 39.4918C14.4542 39.877 15.1232 40.2639 15.7928 40.6484C15.7909 41.9124 15.7915 43.1769 15.7922 44.4409C15.3194 44.2047 14.8726 43.9206 14.4112 43.6631C13.7605 43.2824 13.1011 42.9175 12.4556 42.5292Z" fill="#C83737" stroke="#C83737" stroke-width="0.5"/>
<path d="M39.1539 38.6838C40.2925 39.3075 41.414 39.9622 42.5311 40.6226C42.314 40.8593 42.1735 41.1504 42.0146 41.4263C39.9552 44.9794 37.902 48.5369 35.8406 52.0888C35.833 52.1071 35.8179 52.1425 35.8102 52.1602C35.0387 51.746 34.2913 51.2889 33.528 50.8602C33.1844 50.662 32.8483 50.448 32.4825 50.2914C32.4863 50.2674 32.4933 50.2182 32.4964 50.1941C34.7077 46.3532 36.9355 42.521 39.1539 38.6838Z" fill="#D35F5F" stroke="#D35F5F" stroke-width="0.5"/>
<path d="M15.7929 40.6485C15.8024 40.6226 15.8214 40.5708 15.8315 40.5443C16.1353 40.853 16.5474 41.0096 16.9094 41.2356C17.6581 41.6567 18.3884 42.1119 19.1523 42.5065C19.1486 42.5298 19.1409 42.5766 19.1378 42.5993C19.1169 43.8619 19.1327 45.1252 19.1301 46.3879C18.7251 46.2004 18.3504 45.9548 17.9612 45.7383C17.2935 45.3519 16.6258 44.9668 15.9555 44.5861C15.8998 44.5406 15.81 44.5179 15.7922 44.4409C15.7916 43.1769 15.791 41.9124 15.7929 40.6485Z" fill="#CCCCCC" stroke="#CCCCCC" stroke-width="0.5"/>
<path d="M42.0147 41.4263C42.1735 41.1504 42.314 40.8593 42.5311 40.6226C43.6115 41.2671 44.7032 41.894 45.8014 42.5083C45.6495 42.8776 45.4241 43.2098 45.2279 43.5563C43.2096 47.0558 41.1748 50.5458 39.1628 54.0484C38.418 53.6223 37.673 53.1967 36.9313 52.7649C36.5635 52.5458 36.1692 52.3665 35.8408 52.0888C37.902 48.5369 39.9551 44.9794 42.0147 41.4263Z" fill="white" stroke="white" stroke-width="0.5"/>
<path d="M45.8013 42.5083C46.2323 42.7306 46.6462 42.9837 47.0684 43.223C47.7734 43.6391 48.4949 44.0279 49.1898 44.4617C48.8069 44.9882 48.5246 45.5791 48.1854 46.1334C46.6114 48.8545 45.0361 51.5748 43.4615 54.2959C43.1469 54.8622 42.7931 55.407 42.5008 55.9854C42.4565 57.2682 42.5267 58.5543 42.4672 59.8365L42.466 59.8447L42.4476 59.7929C42.4596 58.5284 42.4736 57.2632 42.4432 55.9993C41.3514 55.3566 40.2489 54.7329 39.1521 54.0984L39.1629 54.0485C41.1749 50.5458 43.2096 47.0559 45.228 43.5564C45.424 43.2098 45.6494 42.8777 45.8013 42.5083Z" fill="#D35F5F" stroke="#D35F5F" stroke-width="0.5"/>
<path d="M95.8563 44.4402C96.9815 43.8316 98.0726 43.1617 99.1903 42.5399C99.2207 44.0967 99.1947 45.6548 99.2036 47.2123C99.203 50.7762 99.2042 54.34 99.203 57.9039L99.1631 57.8817C98.0562 57.2599 96.9645 56.6115 95.8594 55.9865C95.8525 52.1556 95.8594 48.324 95.8563 44.4931V44.4402Z" fill="#ACACAC" stroke="#ACACAC" stroke-width="0.5"/>
<path d="M19.1377 42.5993C19.832 42.9478 20.4903 43.3638 21.1675 43.7445C21.5922 43.9768 21.994 44.2534 22.4421 44.4415C22.494 45.4055 22.449 46.3727 22.4662 47.3387C22.4693 47.6468 22.4795 47.9586 22.4155 48.2623C21.3105 47.6543 20.2333 46.9983 19.1301 46.3879C19.1327 45.1252 19.1168 43.8619 19.1377 42.5993Z" fill="#C83737" stroke="#C83737" stroke-width="0.5"/>
<path d="M22.4421 44.4415L22.4808 44.4592C23.1245 44.7925 23.739 45.1801 24.3719 45.5337C24.8586 45.8008 25.3212 46.1101 25.8275 46.3412C25.7649 46.7124 25.7997 47.0905 25.7934 47.465C25.7883 48.3911 25.8047 49.3179 25.7832 50.244C24.6674 49.6241 23.57 48.9719 22.4611 48.3406C22.4472 48.333 22.42 48.3178 22.4067 48.3102L22.4156 48.2623C22.4795 47.9586 22.4694 47.6468 22.4662 47.3387C22.4491 46.3727 22.494 45.4055 22.4421 44.4415Z" fill="#CCCCCC" stroke="#CCCCCC" stroke-width="0.5"/>
<path d="M48.1854 46.1334C48.5246 45.5791 48.8069 44.9882 49.1898 44.4617C50.2765 45.0999 51.3664 45.7357 52.4689 46.3468C52.267 46.8398 51.955 47.2773 51.7018 47.7439C50.3037 50.1587 48.9056 52.5735 47.5088 54.989C46.9531 55.9644 46.369 56.9234 45.8335 57.9102L45.8013 57.8881C44.7114 57.2372 43.6082 56.6065 42.5007 55.9853C42.7931 55.407 43.1469 54.8622 43.4614 54.2958C45.0361 51.5749 46.6113 48.8545 48.1854 46.1334Z" fill="white" stroke="white" stroke-width="0.5"/>
<path d="M95.555 44.6359C95.6518 44.5828 95.7531 44.5374 95.8562 44.4932C95.8594 48.3241 95.8525 52.1557 95.8594 55.9866C91.4722 58.5188 87.0811 61.0435 82.6919 63.5719C82.5716 63.6288 82.5071 63.743 82.5229 63.8756C82.5172 65.0714 82.5299 66.2677 82.5191 67.4641L82.5185 67.5083C82.4901 62.3888 82.5166 57.2688 82.5052 52.1493C86.857 49.6487 91.205 47.1411 95.555 44.6359Z" fill="#55DDFF" stroke="#55DDFF" stroke-width="0.5"/>
<path d="M52.4689 46.3468C52.7195 46.475 52.9645 46.6145 53.2075 46.7572C54.0974 47.2819 55.0031 47.7787 55.8866 48.3141C55.7056 48.482 55.5866 48.7011 55.4695 48.9145C53.386 52.537 51.2733 56.1432 49.1987 59.7702C49.1892 59.7923 49.1709 59.8371 49.1614 59.8593C48.2025 59.3119 47.2481 58.7563 46.2887 58.2096C46.1317 58.1174 45.9824 58.0133 45.8336 57.9104C46.369 56.9236 46.9533 55.9646 47.5089 54.9892C48.9057 52.5737 50.3038 50.1588 51.7019 47.744C51.9549 47.2774 52.267 46.8399 52.4689 46.3468Z" fill="#D35F5F" stroke="#D35F5F" stroke-width="0.5"/>
<path d="M25.8408 46.446C26.4225 46.7471 26.9801 47.0918 27.549 47.4145C28.0793 47.7295 28.6287 48.0117 29.1452 48.3507C29.1268 49.6134 29.1572 50.8767 29.1306 52.1387C28.0306 51.5124 26.942 50.866 25.8364 50.2504C25.8326 48.9827 25.8199 47.7143 25.8408 46.446Z" fill="#C83737" stroke="#C83737" stroke-width="0.5"/>
<path d="M29.1452 48.3507C29.1521 48.3223 29.1674 48.2654 29.1743 48.237C29.5174 48.5539 29.9566 48.7301 30.3484 48.975C31.0667 49.3771 31.7661 49.8134 32.4964 50.1941C32.4932 50.2181 32.4863 50.2673 32.4824 50.2913C32.4704 51.5534 32.4647 52.8173 32.4862 54.0793C31.3824 53.4524 30.278 52.8267 29.1888 52.1746C29.1742 52.1658 29.1451 52.1481 29.1306 52.1386C29.1572 50.8767 29.1268 49.6133 29.1452 48.3507Z" fill="#CCCCCC" stroke="#CCCCCC" stroke-width="0.5"/>
<path d="M22.4611 48.3406C23.57 48.9719 24.6674 49.6241 25.7832 50.2441C25.792 51.508 25.7851 52.7725 25.7858 54.0365C25.3313 53.8326 24.9168 53.5548 24.4839 53.3123C23.8257 52.9392 23.17 52.563 22.5187 52.1785C22.4662 51.2523 22.5573 50.3223 22.4687 49.3981C22.4383 49.0464 22.4504 48.6929 22.4611 48.3406Z" fill="#E0E0E0" stroke="#E0E0E0" stroke-width="0.5"/>
<path d="M55.4695 48.9145C55.5866 48.7011 55.7055 48.482 55.8865 48.3141C56.9663 48.9593 58.0587 49.5849 59.1567 50.1999C58.6498 51.1519 58.0814 52.0705 57.5504 53.0093C55.8713 55.9197 54.1751 58.8213 52.5068 61.738C51.4043 61.0991 50.2979 60.4671 49.1954 59.8289L49.1986 59.7702C51.2734 56.1432 53.3859 52.537 55.4695 48.9145Z" fill="white" stroke="white" stroke-width="0.5"/>
<path d="M22.4688 49.398C22.5573 50.3223 22.4662 51.2523 22.5188 52.1784C23.17 52.5629 23.8257 52.9391 24.484 53.3123C24.9169 53.5547 25.3314 53.8325 25.7859 54.0364L25.7865 54.0938C25.7902 56.5144 25.7896 58.9355 25.7859 61.3567C25.7884 61.4735 25.7941 61.5921 25.8068 61.7102L25.846 61.7399C31.1054 64.7905 36.3838 67.8108 41.6489 70.8519C41.9033 71.0034 42.1615 71.1479 42.4286 71.278C42.4704 70.0204 42.4059 68.7609 42.4609 67.5045C42.5071 66.2318 42.4654 64.9578 42.4831 63.685C43.4755 64.2002 44.4236 64.7967 45.3989 65.3441C45.5274 65.4123 45.6596 65.4729 45.7926 65.5342C45.8268 66.9604 45.7989 68.3872 45.8078 69.814C45.8052 73.5173 45.8134 77.2213 45.8033 80.9247C45.3887 80.7366 45.0065 80.4904 44.6109 80.2675C40.1578 77.7037 35.7048 75.1385 31.2517 72.5741C28.3289 70.8973 25.417 69.2015 22.4879 67.5355C22.4645 68.8183 22.4816 70.1018 22.4791 71.3847C22.4411 69.8935 22.474 68.401 22.4651 66.9098C22.4651 64.8473 22.4645 62.7853 22.4657 60.7228C22.4638 60.4343 22.4746 60.1457 22.4455 59.8592C22.4297 56.9702 22.4613 54.0787 22.424 51.1897C22.4447 50.5925 22.3751 49.9909 22.4688 49.398Z" fill="#ECECEC" stroke="#ECECEC" stroke-width="0.5"/>
<path d="M59.1568 50.1999C60.3036 50.8179 61.408 51.513 62.5574 52.1267C62.2782 52.4379 62.1169 52.8294 61.8998 53.1823C61.2631 54.258 60.6637 55.354 60.0321 56.4323C58.6707 58.7796 57.3169 61.1307 55.9518 63.4754C55.7815 63.7703 55.8359 64.1225 55.8309 64.4477C55.8385 65.466 55.8264 66.4843 55.8365 67.5033L55.7885 67.4787C55.7568 66.2059 55.8011 64.9313 55.7676 63.6585C54.6701 63.0499 53.5942 62.404 52.4993 61.791L52.5069 61.738C54.1752 58.8212 55.8714 55.9197 57.5505 53.0093C58.0815 52.0704 58.6498 51.1519 59.1568 50.1999Z" fill="#D35F5F" stroke="#D35F5F" stroke-width="0.5"/>
<path d="M25.7832 50.244L25.8363 50.2504C26.942 50.8659 28.0306 51.5124 29.1306 52.1387C29.1451 52.1481 29.1743 52.1658 29.1888 52.1746C29.1521 52.3912 29.1331 52.6109 29.135 52.8312C29.1477 53.8804 29.1325 54.9297 29.1432 55.9796C28.3775 55.5509 27.6249 55.0996 26.8622 54.6665C26.5141 54.4568 26.1654 54.2441 25.7863 54.0938L25.7857 54.0364C25.7852 52.7725 25.7921 51.5079 25.7832 50.244Z" fill="#C2C2C2" stroke="#C2C2C2" stroke-width="0.5"/>
<path d="M32.4825 50.2914C32.8483 50.448 33.1843 50.662 33.528 50.8602C34.2913 51.2889 35.0387 51.746 35.8102 52.1602C35.8102 53.2467 35.8083 54.3332 35.8134 55.4197C35.8134 55.6015 35.7925 55.7828 35.7577 55.9614C34.671 55.3275 33.5824 54.6969 32.4862 54.0794C32.4648 52.8173 32.4705 51.5534 32.4825 50.2914Z" fill="#C83737" stroke="#C83737" stroke-width="0.5"/>
<path d="M35.8103 52.1601C35.8179 52.1424 35.8331 52.1071 35.8407 52.0887C36.1692 52.3665 36.5635 52.5458 36.9312 52.7649C37.673 53.1967 38.4179 53.6222 39.1628 54.0484L39.152 54.0983C39.1279 55.366 39.1647 56.635 39.1343 57.9027C37.9988 57.2732 36.8767 56.6192 35.7577 55.9613C35.7925 55.7826 35.8134 55.6015 35.8134 55.4197C35.8084 54.3331 35.8103 53.2466 35.8103 52.1601Z" fill="#CCCCCC" stroke="#CCCCCC" stroke-width="0.5"/>
<path d="M79.1963 54.0485C80.3013 53.419 81.3981 52.7757 82.5051 52.1494C82.5165 57.2689 82.4899 62.389 82.5183 67.5084C81.4032 66.8765 80.2937 66.2351 79.1862 65.5904C79.1767 62.3479 79.1849 59.1048 79.1824 55.8616C79.1868 55.2575 79.1684 54.6526 79.1963 54.0485Z" fill="#ACACAC" stroke="#ACACAC" stroke-width="0.5"/>
<path d="M29.1351 52.8313C29.1332 52.6109 29.1521 52.3912 29.1889 52.1747C30.2781 52.8269 31.3825 53.4525 32.4863 54.0795C33.5825 54.6969 34.6711 55.3276 35.7577 55.9615C36.8767 56.6193 37.9988 57.2734 39.1343 57.9028C40.2431 58.5253 41.3305 59.1869 42.4475 59.793L42.4659 59.8448C42.3956 61.1018 42.4703 62.3644 42.4298 63.6233C41.3159 63.0248 40.2362 62.3638 39.1324 61.7451C36.1787 60.0393 33.2211 58.3404 30.2661 56.6365C29.8946 56.4307 29.542 56.1889 29.1434 56.0367V55.9798C29.1325 54.9298 29.1478 53.8805 29.1351 52.8313Z" fill="#51D2F2" stroke="#51D2F2" stroke-width="0.5"/>
<path d="M78.5362 54.4379C78.7571 54.3104 78.9793 54.1841 79.1964 54.0484C79.1685 54.6525 79.1869 55.2574 79.1824 55.8615C79.185 59.1047 79.1767 62.3478 79.1862 65.5903C74.7609 68.1365 70.342 70.6933 65.911 73.23L65.8572 73.261C65.8034 72.5343 65.8471 71.8045 65.8332 71.0766C65.8332 69.0986 65.8332 67.1206 65.8332 65.142C65.842 64.0101 65.8148 62.8769 65.8471 61.7455C70.0775 59.3105 74.3065 56.8736 78.5362 54.4379Z" fill="#55DDFF" stroke="#55DDFF" stroke-width="0.5"/>
<path d="M25.7864 54.0939C26.1655 54.2442 26.5142 54.4569 26.8623 54.6665C27.6249 55.0996 28.3775 55.551 29.1433 55.9797V56.0365C29.137 57.3017 29.1395 58.5675 29.1414 59.8327C28.044 60.4704 26.9383 61.0941 25.8459 61.74L25.8067 61.7103C25.794 61.5923 25.7883 61.4736 25.7858 61.3567C25.7895 58.9355 25.7902 56.5144 25.7864 54.0939Z" fill="#CCCCCC" stroke="#CCCCCC" stroke-width="0.5"/>
<path d="M39.1519 54.0983C40.2488 54.7328 41.3513 55.3565 42.443 55.9992C42.4734 57.2631 42.4595 58.5283 42.4475 59.7928C41.3304 59.1867 40.2431 58.5251 39.1342 57.9026C39.1646 56.635 39.1279 55.366 39.1519 54.0983Z" fill="#C83737" stroke="#C83737" stroke-width="0.5"/>
<path d="M42.5007 55.9854C43.6082 56.6066 44.7114 57.2373 45.8013 57.8882C45.8538 59.1868 45.7728 60.4892 45.8431 61.7873C45.9064 63.0626 45.8399 64.3416 45.8747 65.6188C46.9747 66.2325 48.0462 66.8985 49.162 67.4838C49.1651 71.3443 49.1689 75.2049 49.1594 79.0649C48.4993 79.3951 47.8765 79.7928 47.2323 80.1514C46.762 80.4362 46.2626 80.6754 45.8164 80.998C45.8133 80.9797 45.8063 80.9431 45.8031 80.9248C45.8133 77.2214 45.805 73.5174 45.8076 69.814C45.7988 68.3872 45.8266 66.9604 45.7924 65.5343C45.7791 64.2761 45.8152 63.0172 45.776 61.7602C44.6696 61.1529 43.5975 60.4849 42.4855 59.889L42.4672 59.8366C42.5266 58.5543 42.4564 57.2682 42.5007 55.9854Z" fill="#CCCCCC" stroke="#CCCCCC" stroke-width="0.5"/>
<path d="M82.6919 63.572C87.0811 61.0435 91.4721 58.5189 95.8594 55.9866C96.9644 56.6116 98.0562 57.2601 99.1631 57.8819C98.7644 58.2033 98.2897 58.4103 97.8555 58.6786C93.0803 61.4268 88.3069 64.18 83.5304 66.927C83.1937 67.1063 82.8855 67.3443 82.519 67.4642C82.5298 66.2678 82.5172 65.0714 82.5228 63.8757C82.507 63.7431 82.5716 63.6289 82.6919 63.572Z" fill="white" stroke="white" stroke-width="0.5"/>
<path d="M29.1433 56.0365C29.5421 56.1886 29.8946 56.4304 30.2661 56.6363C33.2211 58.3402 36.1786 60.0392 39.1324 61.745C40.2362 62.3636 41.3159 63.0246 42.4298 63.6231C42.4703 62.3643 42.3956 61.1016 42.4659 59.8447L42.4672 59.8364L42.4855 59.8888C42.476 61.1541 42.4798 62.4192 42.4829 63.685C42.4652 64.9578 42.507 66.2318 42.4608 67.5045C38.0229 64.9432 33.5824 62.3877 29.1413 59.8327C29.1396 58.5675 29.137 57.3017 29.1433 56.0365Z" fill="#55DDFF" stroke="#55DDFF" stroke-width="0.5"/>
<path d="M45.8013 57.8881L45.8336 57.9102C45.9823 58.0132 46.1316 58.1173 46.2886 58.2095C47.2481 58.7562 48.2025 59.3118 49.1613 59.8591C49.1322 61.1224 49.1683 62.3876 49.1443 63.6522C48.0304 63.055 46.9639 62.3718 45.8431 61.7872C45.7727 60.4893 45.8538 59.1868 45.8013 57.8881Z" fill="#C83737" stroke="#C83737" stroke-width="0.5"/>
<path d="M49.1613 59.8592C49.1708 59.837 49.1892 59.7922 49.1987 59.7701L49.1955 59.8288C49.2038 61.1085 49.2063 62.3889 49.1949 63.6686C49.1253 64.9389 49.1873 66.2122 49.162 67.4837C48.0462 66.8984 46.9747 66.2324 45.8747 65.6188C45.8399 64.3416 45.9063 63.0625 45.8431 61.7872C46.9639 62.3718 48.0304 63.0549 49.1443 63.6521C49.1684 62.3876 49.1323 61.1225 49.1613 59.8592Z" fill="#C2C2C2" stroke="#C2C2C2" stroke-width="0.5"/>
<path d="M25.8459 61.7399C26.9383 61.0941 28.044 60.4703 29.1414 59.8327C33.5825 62.3877 38.0229 64.9433 42.4608 67.5046C42.4058 68.7609 42.4703 70.0204 42.4285 71.278C42.1615 71.1479 41.9032 71.0034 41.6488 70.8519C36.3837 67.8108 31.1053 64.7905 25.8459 61.7399Z" fill="white" stroke="white" stroke-width="0.5"/>
<path d="M49.1955 59.8289C50.298 60.4671 51.4044 61.0992 52.5069 61.738L52.4992 61.791C52.4802 63.0587 52.5056 64.3264 52.4872 65.5941C51.3784 64.9937 50.3107 64.3201 49.1962 63.7305L49.1949 63.6686C49.2063 62.3889 49.2037 61.1086 49.1955 59.8289Z" fill="#CCCCCC" stroke="#CCCCCC" stroke-width="0.5"/>
<path d="M21.1187 60.6073C21.5617 60.3598 21.9908 60.0865 22.4453 59.8591C22.4744 60.1458 22.4636 60.4343 22.4655 60.7228C22.4642 62.7853 22.4649 64.8472 22.4649 66.9098C22.4737 68.401 22.4408 69.8935 22.4788 71.3847C24.5465 72.5407 26.5863 73.7452 28.6433 74.9201C34.2742 78.1633 39.9064 81.4038 45.5354 84.6502C45.6367 84.7044 45.7424 84.7518 45.8518 84.7916C46.9436 84.1741 48.0163 83.5201 49.1208 82.9254C49.1537 82.9273 49.2189 82.9304 49.2518 82.9323C49.6644 83.0958 50.0322 83.3465 50.4176 83.563C52.6936 84.8699 54.965 86.1837 57.2409 87.4905C57.8852 87.8441 58.4991 88.2538 59.1649 88.5675C59.1649 88.594 59.1643 88.6471 59.1636 88.6736C59.1548 89.9514 59.151 91.2305 59.1655 92.5083C60.2883 93.1206 61.3756 93.7962 62.5003 94.4054C64.3901 93.3416 66.261 92.2431 68.1432 91.1654C79.6082 84.5674 91.0669 77.9581 102.534 71.3644C102.541 70.0859 102.538 68.8075 102.534 67.5297C102.548 64.9728 102.512 62.4153 102.553 59.8597C103.559 60.395 104.531 60.9929 105.525 61.5529C111.2 64.8207 116.874 68.089 122.549 71.3575C122.498 71.3947 122.447 71.4326 122.398 71.4699C121.987 71.7508 121.549 71.9863 121.118 72.2332C101.766 83.3806 82.4114 94.5254 63.0586 105.672C62.9156 105.747 62.7687 105.815 62.6256 105.891C62.2237 105.768 61.8718 105.536 61.5142 105.324C42.8968 94.6012 24.2794 83.8787 5.66127 73.1575C4.60434 72.5526 3.55624 71.9314 2.49109 71.3417C8.69553 67.7546 14.9106 64.1869 21.1187 60.6073Z" fill="#12333B" stroke="#12333B" stroke-width="0.5"/>
<path d="M42.4855 59.8889C43.5976 60.4848 44.6697 61.1528 45.776 61.7601C45.8152 63.0171 45.7792 64.276 45.7925 65.5342C45.6596 65.4729 45.5273 65.4123 45.3988 65.3441C44.4235 64.7968 43.4754 64.2002 42.483 63.685C42.4798 62.4193 42.476 61.154 42.4855 59.8889Z" fill="#E0E0E0" stroke="#E0E0E0" stroke-width="0.5"/>
<path d="M52.4992 61.791C53.5941 62.4041 54.6701 63.0499 55.7675 63.6585C55.801 64.9313 55.7567 66.2059 55.7884 67.4787C54.677 66.8701 53.5922 66.2142 52.4872 65.5942C52.5056 64.3265 52.4803 63.0588 52.4992 61.791Z" fill="#C83737" stroke="#C83737" stroke-width="0.5"/>
<path d="M49.162 67.4838C49.1873 66.2123 49.1253 64.9389 49.1949 63.6687L49.1962 63.7306C49.2455 65.0121 49.1829 66.2963 49.2278 67.5779C50.16 68.0684 51.0543 68.6246 51.9745 69.136C53.0796 69.7837 54.1973 70.4106 55.3011 71.0609C55.5156 71.1783 55.7681 71.4088 56.0201 71.2447C56.7055 70.8577 57.3871 70.4625 58.0681 70.0672C58.4257 69.8614 58.7769 69.6411 59.1599 69.4832C59.1669 74.5869 59.1625 79.6906 59.1625 84.7942C55.8208 82.904 52.5126 80.9539 49.1715 79.0624C49.1481 80.2524 49.1759 81.4438 49.1576 82.6344C49.1602 82.7392 49.143 82.8699 49.2519 82.9325C49.219 82.9306 49.1538 82.9274 49.1209 82.9255C49.1931 82.2197 49.1392 81.5076 49.1557 80.7992C49.157 80.2209 49.1506 79.6432 49.1595 79.065C49.1689 75.205 49.1651 71.3443 49.162 67.4838Z" fill="#55DDFF" stroke="#55DDFF" stroke-width="0.5"/>
<path d="M49.1962 63.7305C50.3107 64.3201 51.3784 64.9938 52.4872 65.5942C53.5923 66.2141 54.6771 66.8701 55.7884 67.4787L55.8365 67.5033C56.9428 66.8865 58.0295 66.2356 59.1346 65.6169C59.1915 66.2356 59.1568 66.8574 59.1656 67.4774C59.1643 68.146 59.1694 68.8146 59.1599 69.4831C58.777 69.6409 58.4257 69.8613 58.0681 70.0671C57.3871 70.4623 56.7054 70.8575 56.02 71.2445C55.7681 71.4087 55.5156 71.1782 55.301 71.0608C54.1972 70.4105 53.0796 69.7836 51.9745 69.1358C51.0542 68.6245 50.16 68.0683 49.2277 67.5777C49.1829 66.2962 49.2455 65.0121 49.1962 63.7305Z" fill="#51D2F2" stroke="#51D2F2" stroke-width="0.5"/>
<path d="M61.2048 64.4193C61.6301 64.1838 62.0371 63.9136 62.4794 63.7103C62.5174 64.9817 62.4946 66.2551 62.4933 67.5273C61.3858 68.1144 60.3308 68.7975 59.2188 69.3764C59.1896 68.1081 59.2055 66.8385 59.2118 65.5702C59.8726 65.1807 60.5409 64.8044 61.2048 64.4193Z" fill="#E0E0E0" stroke="#E0E0E0" stroke-width="0.5"/>
<path d="M59.1346 65.6169C59.1536 65.6056 59.1922 65.5816 59.2118 65.5702C59.2054 66.8385 59.1896 68.1082 59.2187 69.3765C60.3307 68.7975 61.3858 68.1144 62.4934 67.5273C62.5054 74.6027 62.4947 81.6786 62.4984 88.7539C62.4833 89.3511 62.5408 89.9521 62.4516 90.5463C61.8054 90.1643 61.1497 89.7969 60.5009 89.4193C60.0547 89.1712 59.625 88.8928 59.1636 88.6737C59.1642 88.6472 59.1649 88.5942 59.1649 88.5677C59.1643 87.3095 59.1693 86.0518 59.1623 84.7942C59.1623 79.6906 59.1667 74.5869 59.1597 69.4832C59.1692 68.8146 59.1642 68.146 59.1655 67.4775C59.1568 66.8575 59.1916 66.2356 59.1346 65.6169Z" fill="#ECECEC" stroke="#ECECEC" stroke-width="0.5"/>
<path d="M65.9111 73.2301C70.342 70.6934 74.761 68.1365 79.1863 65.5904C80.2938 66.2349 81.4033 66.8764 82.5185 67.5084C77.173 70.5931 71.8224 73.6689 66.475 76.751C66.2732 76.8741 66.0656 76.989 65.851 77.0894C65.8168 76.0742 65.8472 75.0584 65.8358 74.0438C65.8598 73.7775 65.7642 73.4644 65.9111 73.2301Z" fill="white" stroke="white" stroke-width="0.5"/>
<path d="M22.4877 67.5355C25.4167 69.2016 28.3287 70.8974 31.2514 72.5741C35.7045 75.1386 40.1577 77.7037 44.6107 80.2676C45.0063 80.4904 45.3886 80.7366 45.8031 80.9248C45.8063 80.9431 45.8132 80.9797 45.8164 80.998C45.9018 81.4318 45.8562 81.875 45.8638 82.3144C45.8575 83.1395 45.879 83.9659 45.8518 84.7917C45.7423 84.7519 45.6366 84.7046 45.5354 84.6502C39.9064 81.4039 34.2742 78.1633 28.6433 74.9202C26.5863 73.7453 24.5465 72.5406 22.4788 71.3847C22.4814 70.1019 22.4643 68.8184 22.4877 67.5355Z" fill="#D35F5F" stroke="#D35F5F" stroke-width="0.5"/>
<path d="M99.765 69.1101C100.69 68.5861 101.6 68.0355 102.535 67.5298C102.538 68.8076 102.542 70.0861 102.535 71.3646C91.0671 77.9581 79.6083 84.5676 68.1433 91.1656C66.261 92.2433 64.3902 93.3418 62.5004 94.4056C62.4978 93.1303 62.4966 91.855 62.501 90.5803C65.7528 88.6863 69.0218 86.8214 72.2806 84.9388C81.4419 79.6621 90.6037 74.3867 99.765 69.1101Z" fill="#782121" stroke="#782121" stroke-width="0.5"/>
<path d="M2.45448 71.3216L2.49116 71.3418C3.55632 71.9314 4.60441 72.5526 5.66134 73.1575C24.2794 83.8787 42.8969 94.6012 61.5143 105.324C61.8719 105.536 62.2238 105.768 62.6257 105.891C62.47 106.026 62.4947 106.243 62.4915 106.43C62.5035 107.061 62.496 107.693 62.4991 108.325C62.5023 108.802 62.4707 109.281 62.5346 109.756L62.5403 109.804C45.0418 99.732 27.5478 89.6528 10.0518 79.5774C7.51771 78.1247 4.99432 76.653 2.45448 75.2105C2.44558 73.9144 2.44626 72.6178 2.45448 71.3216Z" fill="#26414C" stroke="#26414C" stroke-width="0.5"/>
<path d="M122.398 71.47C122.434 71.4472 122.506 71.4024 122.542 71.3797C122.552 72.648 122.549 73.917 122.544 75.1854C121.889 75.6071 121.193 75.9688 120.524 76.3685C103.846 85.9729 87.1684 95.5779 70.4914 105.183C67.8376 106.705 65.1946 108.245 62.5345 109.756C62.4706 109.281 62.5022 108.802 62.4991 108.325C62.4959 107.693 62.5035 107.061 62.4915 106.43C62.4946 106.244 62.4699 106.026 62.6256 105.891C62.7686 105.815 62.9155 105.747 63.0586 105.672C82.4114 94.5256 101.766 83.3807 121.118 72.2333C121.549 71.9864 121.987 71.7509 122.398 71.47Z" fill="#0C242C" stroke="#0C242C" stroke-width="0.5"/>
<path d="M47.2323 80.1513C47.8766 79.7927 48.4994 79.395 49.1594 79.0648C49.1506 79.6431 49.1569 80.2208 49.1557 80.7991C49.1392 81.5074 49.193 82.2196 49.1209 82.9254C48.0165 83.5201 46.9437 84.1741 45.8519 84.7916C45.8792 83.9658 45.8577 83.1394 45.8639 82.3143C45.8563 81.8749 45.9019 81.4317 45.8165 80.998C46.2627 80.6754 46.762 80.4361 47.2323 80.1513Z" fill="#C83737" stroke="#C83737" stroke-width="0.5"/>
<path d="M49.1715 79.0623C52.5126 80.9538 55.8208 82.904 59.1625 84.7942C59.1694 86.0518 59.1644 87.3094 59.165 88.5676C58.4992 88.2539 57.8853 87.8441 57.241 87.4906C54.9651 86.1837 52.6937 84.87 50.4177 83.5631C50.0323 83.3465 49.6645 83.096 49.2519 82.9324C49.143 82.8699 49.1602 82.7392 49.1576 82.6344C49.1759 81.4437 49.148 80.2524 49.1715 79.0623Z" fill="#0C242C" stroke="#0C242C" stroke-width="0.5"/>
<path d="M59.1637 88.6737C59.6251 88.8927 60.0549 89.1712 60.5011 89.4193C61.1498 89.7968 61.8055 90.1643 62.4517 90.5462C62.4644 90.5544 62.4884 90.5714 62.5011 90.5803C62.4966 91.8549 62.4979 93.1302 62.5005 94.4056C61.3758 93.7964 60.2885 93.1208 59.1657 92.5084C59.151 91.2305 59.1549 89.9515 59.1637 88.6737Z" fill="#D35F5F" stroke="#D35F5F" stroke-width="0.5"/>
<path d="M29 27.5L30 19L56 34V43.5L29 27.5Z" fill="#D35F5F"/>
</svg>
